<svg width="72" height="72" viewBox="0 0 72 72" fill="none" xmlns="http://www.w3.org/2000/svg">
<g filter="url(#filter0_d_2_81)">
<rect x="12" y="8" width="48" height="48" rx="20" fill="white" shape-rendering="crispEdges"/>
<path d="M33.0833 34.0417C33.0833 35.1733 33.9583 36.0833 35.0317 36.0833H37.225C38.1583 36.0833 38.9167 35.29 38.9167 34.2983C38.9167 33.2367 38.45 32.8517 37.7617 32.6067L34.25 31.3817C33.5617 31.1367 33.095 30.7633 33.095 29.69C33.095 28.71 33.8533 27.905 34.7867 27.905H36.98C38.0533 27.905 38.9283 28.815 38.9283 29.9467" stroke="#2F1155" stroke-width="1.5" stroke-linecap="round" stroke-linejoin="round"/>
<path d="M36 26.75V37.25" stroke="#2F1155" stroke-width="1.5" stroke-linecap="round" stroke-linejoin="round"/>
<path d="M47.6667 32C47.6667 38.44 42.44 43.6667 36 43.6667C29.56 43.6667 24.3333 38.44 24.3333 32C24.3333 25.56 29.56 20.3333 36 20.3333" stroke="#2F1155" stroke-width="1.5" stroke-linecap="round" stroke-linejoin="round"/>
<path d="M47.6667 25V20.3333H43" stroke="#2F1155" stroke-width="1.5" stroke-linecap="round" stroke-linejoin="round"/>
<path d="M41.8333 26.1667L47.6667 20.3333" stroke="#2F1155" stroke-width="1.5" stroke-linecap="round" stroke-linejoin="round"/>
</g>
<defs>
<filter id="filter0_d_2_81" x="0" y="0" width="72" height="72" filterUnits="userSpaceOnUse" color-interpolation-filters="sRGB">
<feFlood flood-opacity="0" result="BackgroundImageFix"/>
<feColorMatrix in="SourceAlpha" type="matrix" values="0 0 0 0 0 0 0 0 0 0 0 0 0 0 0 0 0 0 127 0" result="hardAlpha"/>
<feOffset dy="4"/>
<feGaussianBlur stdDeviation="6"/>
<feComposite in2="hardAlpha" operator="out"/>
<feColorMatrix type="matrix" values="0 0 0 0 0.153701 0 0 0 0 0.134062 0 0 0 0 0.275 0 0 0 0.1 0"/>
<feBlend mode="normal" in2="BackgroundImageFix" result="effect1_dropShadow_2_81"/>
<feBlend mode="normal" in="SourceGraphic" in2="effect1_dropShadow_2_81" result="shape"/>
</filter>
</defs>
</svg>
